<svg width="1440" height="1490" viewBox="0 0 1440 1490" fill="none" xmlns="http://www.w3.org/2000/svg">
<path d="M-349 30C-349 13.4315 -335.569 0 -319 0H1540C1556.57 0 1570 13.4315 1570 30V1458.56C1570 1480.34 1547.52 1494.86 1527.67 1485.91L1290.7 1379.05C1287.69 1377.69 1285.16 1376.07 1282.71 1373.85C1241.97 1337.01 849.064 994.649 657.142 1313C473.775 1617.16 45.7863 1423.09 -33.6748 1383.58C-41.8499 1379.51 -51.3882 1379.07 -59.7964 1382.63L-307.31 1487.36C-327.09 1495.73 -349 1481.21 -349 1459.73V30Z" fill="url(#paint0_linear_2381_1328)" fill-opacity="0.78"/>
<defs>
<linearGradient id="paint0_linear_2381_1328" x1="-21" y1="73" x2="1435" y2="1505" gradientUnits="userSpaceOnUse">
<stop stop-color="#F64BFF" stop-opacity="0.06"/>
<stop offset="1" stop-color="#AA0AB2" stop-opacity="0.5"/>
</linearGradient>
</defs>
</svg>
