<svg width="1440" height="743" viewBox="0 0 1440 743" fill="none" xmlns="http://www.w3.org/2000/svg">
<path d="M1570.01 710.011C1570.03 726.58 1556.62 740.03 1540.05 740.054L-318.948 742.696C-335.517 742.72 -348.967 729.307 -348.991 712.739L-349.844 112.823C-349.87 93.895 -332.577 79.6724 -314.01 83.3527L-98.454 126.081C-81.0534 129.53 -70.1066 147.428 -70.4471 165.164C-71.8744 239.524 -16.2497 397.452 563.082 159.97C1140.65 -76.7883 1355.76 7.74292 1419.98 52.7568C1433.98 62.5742 1454.4 64.6558 1467.83 54.0574L1498.69 29.6946C1512.06 19.1386 1531.52 21.8211 1541.54 35.5999L1563.38 65.6426C1567.1 70.7577 1569.11 76.9171 1569.12 83.241L1570.01 710.011Z" fill="url(#paint0_linear_2381_1663)"/>
<defs>
<linearGradient id="paint0_linear_2381_1663" x1="610.551" y1="741.375" x2="609.603" y2="74.8756" gradientUnits="userSpaceOnUse">
<stop stop-color="#88388C"/>
<stop offset="1" stop-color="#E605F1"/>
</linearGradient>
</defs>
</svg>
