<svg width="1440" height="1426" viewBox="0 0 1440 1426" fill="none" xmlns="http://www.w3.org/2000/svg">
<path d="M-349 -34C-349 -50.5685 -335.569 -64 -319 -64H1540C1556.57 -64 1570 -50.5685 1570 -34V1394.56C1570 1416.34 1547.52 1430.86 1527.67 1421.91L1290.7 1315.05C1287.69 1313.69 1285.16 1312.07 1282.71 1309.85C1241.97 1273.01 849.064 930.649 657.142 1249C473.775 1553.16 45.7863 1359.09 -33.6748 1319.58C-41.8498 1315.51 -51.3882 1315.07 -59.7964 1318.63L-307.31 1423.36C-327.09 1431.73 -349 1417.21 -349 1395.73V-34Z" fill="url(#paint0_linear_2381_1327)"/>
<defs>
<linearGradient id="paint0_linear_2381_1327" x1="610.5" y1="-64" x2="610.5" y2="1441" gradientUnits="userSpaceOnUse">
<stop stop-color="#88388C"/>
<stop offset="1" stop-color="#E605F1"/>
</linearGradient>
</defs>
</svg>
