<svg width="1440" height="743" viewBox="0 0 1440 743" fill="none" xmlns="http://www.w3.org/2000/svg">
<path d="M1569.97 685.211C1570 701.78 1556.58 715.23 1540.01 715.254L-318.983 717.896C-335.552 717.92 -349.002 704.507 -349.026 687.939L-349.879 88.0229C-349.906 69.095 -332.612 54.8724 -314.045 58.5528L-68.9003 107.146C-66.9703 107.529 -65.3638 107.987 -63.5377 108.719C-28.5953 122.739 369.671 277.647 563.047 135.17C752.224 -4.21241 1202.65 91.3772 1260.49 104.413C1264.61 105.342 1268.79 105.422 1272.94 104.638L1533.55 55.4194C1552.01 51.9337 1569.09 66.0729 1569.12 84.8556L1569.97 685.211Z" fill="url(#paint0_linear_2381_1664)" fill-opacity="0.78"/>
<path d="M1569.94 663.511C1569.96 680.08 1556.55 693.53 1539.98 693.554L-319.014 696.196C-335.583 696.22 -349.033 682.807 -349.057 666.239L-349.909 66.3228C-349.936 47.395 -332.643 33.1724 -314.076 36.8527L-68.9311 85.4464C-67.0011 85.8289 -65.3946 86.2867 -63.5685 87.0193C-28.626 101.039 369.64 255.947 563.016 113.47C752.194 -25.9125 1202.62 69.6771 1260.46 82.7125C1264.58 83.6419 1268.76 83.722 1272.91 82.9375L1533.52 33.7193C1551.98 30.2337 1569.06 44.3728 1569.09 63.1555L1569.94 663.511Z" fill="url(#paint1_linear_2381_1664)" fill-opacity="0.78"/>
<path d="M1570.01 710.011C1570.03 726.58 1556.62 740.03 1540.05 740.054L-318.948 742.696C-335.517 742.72 -348.967 729.307 -348.991 712.739L-349.844 112.823C-349.87 93.895 -332.577 79.6724 -314.01 83.3527L-98.454 126.081C-81.0534 129.53 -70.1066 147.428 -70.4471 165.164C-71.8744 239.524 -16.2497 397.452 563.082 159.97C1140.65 -76.7883 1355.76 7.74295 1419.98 52.7568C1433.98 62.5742 1454.4 64.6558 1467.83 54.0574L1498.69 29.6947C1512.06 19.1386 1531.52 21.8211 1541.54 35.5999L1563.38 65.6427C1567.1 70.7577 1569.11 76.917 1569.12 83.241L1570.01 710.011Z" fill="url(#paint2_linear_2381_1664)"/>
<defs>
<linearGradient id="paint0_linear_2381_1664" x1="1241.97" y1="683.349" x2="757.586" y2="-388.32" gradientUnits="userSpaceOnUse">
<stop stop-color="#A700AF"/>
<stop offset="1" stop-color="#FAD3FC" stop-opacity="0"/>
</linearGradient>
<linearGradient id="paint1_linear_2381_1664" x1="1241.94" y1="661.649" x2="757.555" y2="-410.02" gradientUnits="userSpaceOnUse">
<stop stop-color="#F64BFF" stop-opacity="0.06"/>
<stop offset="1" stop-color="#AA0AB2" stop-opacity="0.5"/>
</linearGradient>
<linearGradient id="paint2_linear_2381_1664" x1="610.551" y1="741.375" x2="609.603" y2="74.8756" gradientUnits="userSpaceOnUse">
<stop stop-color="#88388C"/>
<stop offset="1" stop-color="#E605F1"/>
</linearGradient>
</defs>
</svg>
